<svg width="447" height="177" viewBox="0 0 447 177" fill="none" xmlns="http://www.w3.org/2000/svg">
<path d="M49.576 63.792V102H45.992V57.2H49.576L73.896 95.408V57.2H77.48V102H73.896L49.576 63.792ZM89.793 60.848C89.2383 60.848 88.7263 60.6347 88.257 60.208C87.8303 59.7387 87.617 59.2267 87.617 58.672C87.617 58.1173 87.8303 57.6267 88.257 57.2C88.6837 56.7733 89.1957 56.56 89.793 56.56C90.3903 56.56 90.881 56.7733 91.265 57.2C91.6917 57.584 91.905 58.0747 91.905 58.672C91.905 59.2693 91.6917 59.7813 91.265 60.208C90.8383 60.6347 90.3477 60.848 89.793 60.848ZM87.937 69.936H91.521V102H87.937V69.936Z" fill="black"/>
<path d="M113.4 103.248C109.816 102.224 107.224 100.592 105.624 98.352C104.024 96.112 103.224 93.104 103.224 89.328V34.8H108.6V53.904H120.12L117.816 58.992H108.6V89.328C108.6 94.448 110.712 97.712 114.936 99.12L113.4 103.248Z" fill="black"/>
<path d="M142.864 91.224C142.864 94.808 141.883 97.7733 139.92 100.12C137.957 102.467 134.992 103.64 131.024 103.64C127.056 103.64 124.048 102.467 122 100.12C119.995 97.7307 118.992 94.7653 118.992 91.224V82.776C118.992 78.7227 120.016 75.6293 122.064 73.496C124.155 71.32 127.141 70.232 131.024 70.232C134.736 70.232 137.637 71.3627 139.728 73.624C141.819 75.8427 142.864 78.8933 142.864 82.776V91.224ZM139.28 82.776C139.28 79.576 138.533 77.2293 137.04 75.736C135.589 74.2427 133.584 73.496 131.024 73.496C128.379 73.496 126.309 74.2427 124.816 75.736C123.323 77.2293 122.576 79.576 122.576 82.776V91.864C122.576 94.424 123.323 96.4933 124.816 98.072C126.352 99.6507 128.421 100.44 131.024 100.44C133.669 100.44 135.696 99.672 137.104 98.136C138.555 96.5573 139.28 94.4667 139.28 91.864V82.776ZM169.192 81.048C169.192 78.4453 168.424 76.568 166.888 75.416C165.395 74.2213 163.453 73.624 161.064 73.624C159.613 73.624 158.141 73.8373 156.648 74.264C155.155 74.648 153.832 75.16 152.68 75.8V103H149.096V70.936H152.68L152.424 73.112C153.448 72.216 154.749 71.5547 156.328 71.128C157.907 70.6587 159.549 70.424 161.256 70.424C163.603 70.424 165.608 70.808 167.272 71.576C168.979 72.344 170.301 73.496 171.24 75.032C172.221 76.568 172.712 78.5093 172.712 80.856V103H169.192V81.048ZM205.864 91.224C205.864 94.808 204.883 97.7733 202.92 100.12C200.957 102.467 197.992 103.64 194.024 103.64C190.056 103.64 187.048 102.467 185 100.12C182.995 97.7307 181.992 94.7653 181.992 91.224V82.776C181.992 78.7227 183.016 75.6293 185.064 73.496C187.155 71.32 190.141 70.232 194.024 70.232C197.736 70.232 200.637 71.3627 202.728 73.624C204.819 75.8427 205.864 78.8933 205.864 82.776V91.224ZM202.28 82.776C202.28 79.576 201.533 77.2293 200.04 75.736C198.589 74.2427 196.584 73.496 194.024 73.496C191.379 73.496 189.309 74.2427 187.816 75.736C186.323 77.2293 185.576 79.576 185.576 82.776V91.864C185.576 94.424 186.323 96.4933 187.816 98.072C189.352 99.6507 191.421 100.44 194.024 100.44C196.669 100.44 198.696 99.672 200.104 98.136C201.555 96.5573 202.28 94.4667 202.28 91.864V82.776ZM207.09 70.936H210.866L219.378 99.288L227.954 70.936H231.73L221.81 103H216.882L207.09 70.936ZM256.383 103C251.775 103.469 248.447 103.704 246.399 103.704C241.919 103.704 238.356 102.872 235.711 101.208C233.066 99.544 231.743 96.536 231.743 92.184V86.872C231.743 82.648 233.215 79.8107 236.159 78.36C237.567 77.6347 239.359 77.272 241.535 77.272C243.54 77.272 245.567 77.6133 247.615 78.296C249.663 78.936 251.391 79.7893 252.799 80.856C252.799 78.5093 252.116 76.6533 250.751 75.288C249.386 73.88 246.762 73.176 242.879 73.176L243.071 70.424C247.167 70.424 250.175 71.0853 252.095 72.408C254.058 73.688 255.252 75.224 255.679 77.016C256.148 78.808 256.383 81.112 256.383 83.928V103ZM252.799 83.608C251.05 82.7973 249.172 82.0933 247.167 81.496C245.204 80.8987 243.391 80.6 241.727 80.6C237.418 80.6 235.263 82.7547 235.263 87.064V92.632C235.263 95.4053 236.223 97.432 238.143 98.712C240.063 99.9493 242.794 100.568 246.335 100.568C248.17 100.568 250.324 100.397 252.799 100.056V83.608ZM263.68 99.8L281.28 74.2H264.256V70.936H285.824V74.136L268.095 99.736H287.168V103H263.68V99.8Z" fill="black"/>
<line x1="108.013" y1="56" x2="337.013" y2="57" stroke="black" stroke-width="6"/>
<path d="M78.52 131.096C77.016 131.096 75.896 130.6 75.16 129.608C74.456 128.616 73.88 127.24 73.432 125.48C72.856 126.056 72.456 126.344 72.232 126.344C72.072 126.344 71.992 126.216 71.992 125.96C71.992 125.768 72.072 125.592 72.232 125.432C72.232 125.432 72.632 124.936 73.432 123.944C74.264 122.952 75.656 121.56 77.608 119.768L83.656 114.104C84.488 113.304 85.144 112.696 85.624 112.28C86.136 111.864 86.504 111.656 86.728 111.656C87.752 111.656 88.264 112.04 88.264 112.808C88.264 113.192 88.056 113.64 87.64 114.152C87.32 114.536 87.08 114.84 86.92 115.064C86.792 115.256 86.712 115.368 86.68 115.4C86.104 116.392 85.576 118.168 85.096 120.728C84.744 122.616 84.44 124.168 84.184 125.384C83.928 126.6 83.72 127.48 83.56 128.024C84.904 127.992 86.232 127.576 87.544 126.776C88.856 125.976 90.264 124.664 91.768 122.84C91.832 122.776 91.928 122.68 92.056 122.552C92.184 122.424 92.312 122.36 92.44 122.36C92.632 122.36 92.728 122.44 92.728 122.6C92.728 122.76 92.68 122.92 92.584 123.08C92.488 123.24 92.392 123.384 92.296 123.512C91.304 124.696 90.376 125.672 89.512 126.44C88.648 127.176 87.736 127.768 86.776 128.216C85.816 128.632 84.68 128.984 83.368 129.272L81.832 130.28C81.416 130.568 80.92 130.776 80.344 130.904C79.768 131.032 79.16 131.096 78.52 131.096ZM79.096 128.648C79.832 128.648 80.44 128.472 80.92 128.12C81.272 127.928 81.608 127.4 81.928 126.536C82.28 125.64 82.616 124.536 82.936 123.224C83.192 122.104 83.384 121.016 83.512 119.96C83.672 118.872 83.816 117.832 83.944 116.84L84.136 115.208C83.4 115.752 82.472 116.536 81.352 117.56C80.232 118.584 79.128 119.656 78.04 120.776C76.952 121.896 76.248 122.728 75.928 123.272C75.608 123.784 75.432 124.168 75.4 124.424C75.272 125.704 75.576 126.728 76.312 127.496C77.08 128.264 78.008 128.648 79.096 128.648ZM93.226 131.288C92.202 131.288 91.386 131.048 90.778 130.568C90.202 130.056 89.914 129.16 89.914 127.88C89.914 127.144 90.138 126.216 90.586 125.096C91.034 123.944 91.594 122.712 92.266 121.4C92.938 120.088 93.61 118.792 94.282 117.512C93.866 117.608 93.498 117.656 93.178 117.656C92.218 117.656 91.738 117.288 91.738 116.552C91.738 116.2 91.866 115.928 92.122 115.736C92.41 115.544 92.666 115.432 92.89 115.4C92.89 115.4 92.922 115.4 92.986 115.4C93.082 115.4 93.194 115.384 93.322 115.352H96.106C96.682 114.616 97.274 113.832 97.882 113C98.746 111.912 99.434 111.272 99.946 111.08H100.09C100.314 111.08 100.634 111.192 101.05 111.416C101.562 111.704 101.818 111.992 101.818 112.28C101.818 112.696 101.05 113.768 99.514 115.496C99.802 115.528 100.218 115.544 100.762 115.544C101.306 115.544 101.978 115.544 102.778 115.544C103.162 115.544 103.706 115.544 104.41 115.544C105.146 115.544 105.898 115.544 106.666 115.544C107.466 115.512 108.154 115.496 108.73 115.496C109.306 115.464 109.626 115.448 109.69 115.448C109.786 115.48 109.834 115.528 109.834 115.592C109.834 115.88 107.946 116.264 104.17 116.744C102.026 117.032 100.378 117.256 99.226 117.416C98.106 117.576 97.498 117.672 97.402 117.704C96.954 118.088 96.41 118.744 95.77 119.672C95.13 120.6 94.49 121.64 93.85 122.792C93.21 123.944 92.666 125.048 92.218 126.104C91.802 127.128 91.594 127.928 91.594 128.504C91.594 129.016 91.786 129.448 92.17 129.8C92.554 130.12 93.178 130.28 94.042 130.28C94.618 130.28 95.306 130.152 96.106 129.896C96.906 129.64 97.658 129.352 98.362 129.032C99.098 128.68 99.626 128.408 99.946 128.216C100.778 127.704 101.69 127.032 102.682 126.2C103.706 125.336 104.714 124.36 105.706 123.272C106.154 122.824 106.458 122.6 106.618 122.6C106.714 122.6 106.762 122.664 106.762 122.792C106.762 123.048 106.522 123.464 106.042 124.04C105.274 124.968 104.41 125.864 103.45 126.728C102.522 127.56 101.482 128.328 100.33 129.032C99.018 129.832 97.754 130.408 96.538 130.76C95.354 131.112 94.25 131.288 93.226 131.288ZM106.564 131.096C105.764 131.096 105.14 130.728 104.692 129.992C104.244 129.224 104.02 128.488 104.02 127.784C104.02 125.864 105.412 123.176 108.196 119.72C111.012 116.232 113.284 114.488 115.012 114.488C116.644 114.488 117.46 115.352 117.46 117.08C117.46 117.336 117.428 117.608 117.364 117.896C117.332 118.184 117.284 118.488 117.22 118.808C117.284 118.904 117.444 118.952 117.7 118.952C118.564 118.952 119.588 118.648 120.772 118.04C120.74 118.584 119.476 119.368 116.98 120.392C117.332 121.448 116.276 123.464 113.812 126.44C111.284 129.544 109.124 131.096 107.332 131.096H106.564ZM107.428 129.656C108.804 129.656 110.564 128.392 112.708 125.864C114.788 123.4 115.828 121.624 115.828 120.536C115.316 120.248 114.676 119.512 113.908 118.328C112.82 118.328 111.252 119.64 109.204 122.264C107.188 124.824 106.212 126.792 106.276 128.168C106.308 129.16 106.692 129.656 107.428 129.656ZM127.792 131.24C126.416 131.24 125.472 130.888 124.96 130.184C124.448 129.448 124.192 128.472 124.192 127.256C124.192 125.912 124.608 124.312 125.44 122.456C125.76 121.72 126.096 121.064 126.448 120.488C126.8 119.88 127.168 119.32 127.552 118.808C127.424 118.84 127.312 118.856 127.216 118.856C127.12 118.856 127.024 118.856 126.928 118.856C126.16 118.856 125.52 118.312 125.008 117.224L121.456 121.832C119.568 124.296 118.416 125.528 118 125.528C117.84 125.528 117.76 125.464 117.76 125.336C117.76 125.176 117.84 124.968 118 124.712C118.096 124.52 118.288 124.264 118.576 123.944C119.792 122.536 120.912 121.144 121.936 119.768C122.96 118.392 123.808 117.048 124.48 115.736C125.216 112.952 126.144 111.56 127.264 111.56C128 111.56 128.368 111.896 128.368 112.568C128.368 113.176 127.968 113.976 127.168 114.968C126.4 115.96 126.016 116.472 126.016 116.504C126.016 117.176 126.512 117.512 127.504 117.512C128.08 117.512 128.72 117.304 129.424 116.888L130.672 116.12C130.736 116.088 130.832 116.072 130.96 116.072C131.344 116.072 131.68 116.232 131.968 116.552C132.256 116.872 132.352 117.16 132.256 117.416L128.944 121.592C126.896 124.216 125.872 126.328 125.872 127.928C125.872 129.368 126.576 130.088 127.984 130.088C128.944 130.088 129.968 129.8 131.056 129.224C132.176 128.648 133.248 127.944 134.272 127.112C135.328 126.248 136.208 125.416 136.912 124.616L138.064 123.272C138.128 123.208 138.208 123.128 138.304 123.032C138.4 122.936 138.48 122.888 138.544 122.888C138.768 122.888 138.88 123 138.88 123.224C138.88 123.288 138.848 123.4 138.784 123.56C138.72 123.72 138.608 123.896 138.448 124.088L136.912 125.816C136.176 126.648 135.264 127.496 134.176 128.36C133.12 129.192 132.016 129.88 130.864 130.424C129.744 130.968 128.72 131.24 127.792 131.24ZM139.339 131.624C138.315 131.624 137.387 131.304 136.555 130.664C135.723 129.992 135.307 129.112 135.307 128.024C135.307 125.752 136.699 123.16 139.483 120.248C142.331 117.304 144.875 115.832 147.115 115.832C147.851 115.832 148.443 116.04 148.891 116.456C149.371 116.84 149.611 117.32 149.611 117.896C149.611 119.688 148.187 121.448 145.339 123.176C142.811 124.712 140.683 125.48 138.955 125.48C138.699 125.48 138.475 125.448 138.283 125.384C137.803 126.248 137.563 127.16 137.563 128.12C137.563 129.784 138.347 130.616 139.915 130.616C141.515 130.616 143.579 129.544 146.107 127.4C148.059 125.832 149.723 124.168 151.099 122.408C151.387 122.024 151.643 121.832 151.867 121.832C152.059 121.832 152.155 121.928 152.155 122.12C152.155 122.312 152.027 122.584 151.771 122.936C150.875 124.12 149.915 125.208 148.891 126.2C147.867 127.192 146.763 128.104 145.579 128.936C143.115 130.728 141.035 131.624 139.339 131.624ZM139.627 124.424C140.843 124.424 142.427 123.816 144.379 122.6C145.019 122.152 145.643 121.656 146.251 121.112C146.891 120.536 147.403 119.96 147.787 119.384C148.203 118.808 148.411 118.296 148.411 117.848C148.411 117.432 148.075 117.224 147.403 117.224C146.443 117.224 145.099 117.944 143.371 119.384C142.539 120.088 141.739 120.856 140.971 121.688C140.203 122.52 139.547 123.4 139.003 124.328C139.195 124.392 139.403 124.424 139.627 124.424Z" fill="black"/>
<line x1="152" y1="122" x2="292" y2="122" stroke="#BF360C" stroke-width="6"/>
<path d="M289.267 117.027L334.169 64.8715C334.675 64.2793 335.225 63.7858 335.808 63.3628V54.931H336.237C336.534 53.7748 337.249 52.8019 338.492 52.4353C341.275 51.6175 344.344 50.4472 346.247 47.5285C347.16 46.1185 347.446 44.2714 347.061 43.2844C344.828 37.729 338.371 39.421 334.664 41.4655C330.715 43.651 327.261 36.2767 331.254 34.063C338.14 30.256 349.338 28.5358 353.045 39.4069C355.905 47.7964 351.582 54.2683 346.082 57.9484V63.2923C346.698 63.7435 347.292 64.2511 347.82 64.8715L392.733 117.027C396.495 121.413 395.23 124.952 389.906 124.952H368.555V120.327V115.702H380.853L342.98 71.71C342.496 71.146 341.77 70.8217 341 70.8217C340.23 70.8217 339.504 71.146 339.02 71.71L301.147 115.702H313.687V120.327V124.952H292.094C286.77 124.952 285.505 121.413 289.267 117.027Z" fill="#BF360C"/>
<path d="M364.947 115.716V120.341V124.966V165.87L353.639 161.485L353.749 133.821C353.76 131.268 352.154 129.182 350.163 129.168C350.163 129.168 350.152 129.168 350.141 129.168C348.161 129.168 346.544 131.226 346.533 133.764L346.434 158.679L317.295 147.371V124.952V120.327V115.702V106.326H364.947V115.716Z" fill="#BF360C"/>
</svg>
